<?xml version="1.0" encoding="iso-8859-1"?>
<!-- Uploaded to: SVG Repo, www.svgrepo.com, Generator: SVG Repo Mixer Tools -->
<svg height="800px" width="800px" version="1.1" id="Layer_1" xmlns="http://www.w3.org/2000/svg" xmlns:xlink="http://www.w3.org/1999/xlink" 
	 viewBox="0 0 512 512" xml:space="preserve">
<path style="fill:#A5B900;" d="M159.676,112.319c8.581-2.084,17.058-3.138,25.294-3.138c25.97,0.002,49.28,9.969,69.434,29.66
	c18.912-19.44,43.512-30.021,70.299-30.021c8.967,0,18.202,1.183,27.559,3.505l46.355-35.26c-8.337-4.145-19.823-8.11-33.266-8.11
	c-17.182,0-34.386,6.423-51.134,19.094c-3.003,2.273-6.81,3.209-10.526,2.605c-3.718-0.609-7.023-2.719-9.144-5.833
	c-0.222-0.325-19.227-28.143-38.61-50.599c-19.319,22.446-38.09,50.218-38.309,50.543c-2.112,3.133-5.421,5.261-9.149,5.883
	c-3.732,0.612-7.548-0.32-10.561-2.6c-16.748-12.669-33.966-19.094-51.172-19.094c-13.479,0-25,3.974-33.358,8.126L159.676,112.319z
	"/>
<path style="fill:#D21E1E;" d="M119.115,274.454c1.764-0.944,3.634-1.718,5.601-2.265c10.411-2.894,20.943-4.361,31.302-4.361
	c24.15,0,43.504,7.754,59.055,13.987c8.47,3.393,15.785,6.323,21.548,7.114c5.653,0.776,10.764,1.154,15.62,1.154
	c11.154,0,18.915-2.034,27.903-4.389c9.57-2.509,20.418-5.352,34.384-5.352c17.911,0,46.317,7.878,63.492,21.08
	c54.672-83.984,13.828-147.855-25.701-160.507c-9.813-3.133-19.03-4.58-27.617-4.58c-23.645,0-42.512,10.958-55.956,27.801
	c-3.629,4.547-8.937,6.877-14.229,6.877c-4.865,0-9.715-1.971-13.228-6.005c-14.258-16.368-32.615-28.31-56.319-28.312
	c-7.864,0-16.317,1.316-25.406,4.218C124.367,152.173,88.136,203.992,119.115,274.454z"/>
<path d="M406.049,146.746c-7.12-8.793-15.49-16.289-24.535-22.105l49.234-37.447c3.242-2.464,5.225-6.239,5.414-10.308
	c0.189-4.067-1.431-8.01-4.428-10.767c-1.095-1.008-27.28-24.681-66.383-24.681c-19.127,0-37.901,5.587-55.979,16.635
	c-9.844-13.704-27.299-37.041-43.545-53.87C263.235,1.517,259.663,0,255.929,0s-7.305,1.517-9.899,4.201
	c-16.232,16.814-33.543,40.114-43.318,53.841c-18.064-11.027-36.837-16.604-55.965-16.604c-39.138,0-65.372,23.662-66.469,24.669
	c-3.001,2.755-4.628,6.7-4.44,10.769c0.186,4.069,2.169,7.847,5.41,10.315l49.158,37.423c-9.065,5.82-17.452,13.323-24.585,22.128
	c-13.194,16.291-21.751,36.331-24.75,57.958c-4.733,34.142,4.514,71.169,26.74,107.08c0.267,0.433,0.564,0.863,0.836,1.297
	c0.057,0.093,0.098,0.191,0.156,0.284c12.079,19.18,32.41,47.975,60.667,76.232c13.302,13.302,21.675,24.952,24.883,34.618
	c2.071,6.241,1.615,10.578,0.984,16.58c-0.313,2.97-0.666,6.335-0.666,9.952c0,33.777,27.479,61.257,61.257,61.257
	c33.779,0,61.258-27.481,61.258-61.257c0-3.88-0.401-7.398-0.789-10.8c-0.714-6.256-1.276-11.197,0.643-17.653
	c2.774-9.321,10.248-20.114,22.215-32.08c18.093-18.093,33.495-36.787,43.684-49.153c0.101-0.12,0.184-0.255,0.28-0.378
	c7.864-9.572,14.829-19.209,20.826-28.902c22.224-35.91,31.471-72.937,26.742-107.079
	C427.794,183.075,419.24,163.035,406.049,146.746z M255.929,484.484c-18.633,0-33.741-15.108-33.741-33.741
	c0-14.492,10.925-36.422-33.261-80.605c-25.232-25.232-44.285-51.502-56.84-71.439c8.55-2.378,16.489-3.355,23.932-3.355
	c31.705,0,54.393,17.761,76.86,20.845c7.257,0.996,13.637,1.408,19.364,1.408c27.808,0,40.178-9.741,62.287-9.741
	c13.123,0,35.75,6.633,47.177,15.703c-10.893,13.221-25.271,30.561-41.905,47.193c-41.617,41.616-30.128,65.442-30.128,79.991
	C289.672,469.375,274.566,484.484,255.929,484.484z M197.918,88.046c3.013,2.28,6.829,3.212,10.561,2.6
	c3.728-0.621,7.037-2.75,9.149-5.883c0.218-0.325,18.989-28.097,38.307-50.544c19.383,22.456,38.388,50.273,38.61,50.599
	c2.12,3.114,5.426,5.223,9.144,5.833c3.716,0.605,7.524-0.33,10.526-2.605c16.748-12.669,33.953-19.094,51.134-19.094
	c13.441,0,24.929,3.966,33.266,8.11l-46.355,35.26c-9.357-2.322-18.592-3.505-27.559-3.505c-26.786,0-51.387,10.581-70.299,30.021
	c-20.153-19.691-43.464-29.658-69.434-29.66c-8.236,0-16.712,1.054-25.294,3.138l-46.286-35.239
	c8.358-4.151,19.88-8.126,33.357-8.126C163.952,68.954,181.169,75.377,197.918,88.046z M159.563,140.913
	c9.089-2.903,17.541-4.218,25.406-4.218c23.705,0.002,42.061,11.943,56.319,28.312c3.513,4.034,8.363,6.005,13.228,6.005
	c5.292,0,10.6-2.33,14.229-6.877c13.445-16.843,32.312-27.801,55.956-27.801c8.585,0,17.804,1.446,27.617,4.58
	c39.53,12.652,80.373,76.523,25.701,160.507c-17.175-13.202-45.581-21.08-63.492-21.08c-13.966,0-24.814,2.843-34.384,5.352
	c-8.987,2.354-16.747,4.389-27.903,4.389c-4.857,0-9.968-0.378-15.62-1.154c-5.765-0.791-13.079-3.721-21.548-7.114
	c-15.551-6.232-34.905-13.987-59.055-13.987c-10.36,0-20.891,1.469-31.302,4.361c-1.967,0.547-3.837,1.322-5.601,2.265
	C88.136,203.992,124.367,152.173,159.563,140.913z"/>
<path style="fill:#BE6419;" d="M319.8,370.752c16.633-16.633,31.012-33.973,41.905-47.193
	c-11.428-9.068-34.054-15.703-47.177-15.703c-22.107,0-34.479,9.741-62.287,9.741c-5.727,0-12.107-0.413-19.364-1.408
	c-22.468-3.083-45.157-20.845-76.86-20.845c-7.443,0-15.381,0.977-23.932,3.355c12.556,19.937,31.609,46.207,56.84,71.439
	c44.185,44.183,33.261,66.113,33.261,80.605c0,18.633,15.108,33.741,33.741,33.741c18.637,0,33.743-15.108,33.743-33.741
	C289.672,436.195,278.183,412.368,319.8,370.752z"/>
</svg>