<?xml version="1.0" encoding="iso-8859-1"?>
<!-- Uploaded to: SVG Repo, www.svgrepo.com, Generator: SVG Repo Mixer Tools -->
<svg height="800px" width="800px" version="1.1" id="Layer_1" xmlns="http://www.w3.org/2000/svg" xmlns:xlink="http://www.w3.org/1999/xlink" 
	 viewBox="0 0 512 512" xml:space="preserve">
<g>
	<path style="fill:#BE6419;" d="M81.792,484.324h128.694c-16.969-14.064-30.154-28.66-39.362-43.603
		c-6.857-11.124-11.508-22.526-13.91-33.84c-10.038-0.199-20.207-2.726-29.827-7.273l-4.669,16.061
		c-1.311,4.511-4.821,8.048-9.322,9.396c-4.506,1.351-9.377,0.318-12.95-2.733c-4.042-3.401-17.195-12.309-28.906-12.309
		c-6.666,0-11.942,2.965-16.607,9.327c-7.171,9.782-8.969,24.242-4.573,36.836C55.064,469.66,66.19,479.602,81.792,484.324z"/>
	<path style="fill:#BE6419;" d="M461.636,456.22c4.407-12.629,2.607-27.127-4.586-36.938c-4.656-6.352-9.929-9.309-16.59-9.309
		c-11.856,0-25.242,9.152-28.995,12.359c-3.567,3.046-8.434,4.084-12.93,2.74c-4.497-1.335-8.009-4.859-9.334-9.358l-4.795-16.304
		c-9.147,4.234-18.778,6.642-28.319,7.007c-2.371,11.466-7.062,23.026-14.011,34.304c-9.207,14.943-22.393,29.54-39.362,43.605
		H430.26C445.831,479.609,456.938,469.68,461.636,456.22z"/>
</g>
<path d="M479.365,402.916c-9.892-13.49-23.346-20.62-38.907-20.62c-11.219,0-21.703,3.712-29.923,7.87l-2.159-7.339
	c0.279-0.27,0.566-0.528,0.842-0.803c28.601-28.501,33.066-70.348,9.953-93.546c-7.754-7.784-17.996-12.764-29.433-14.435
	c16.483-25.1,26.088-55.101,26.088-87.308c0-18.273-3.098-35.835-8.782-52.196c20.869-12.762,34.83-35.762,34.83-61.964
	C441.877,32.557,409.318,0,369.299,0c-26.474,0-49.673,14.253-62.35,35.484c-15.91-5.338-32.931-8.237-50.617-8.237
	c-17.519,0-34.382,2.847-50.164,8.09C193.471,14.187,170.316,0,143.903,0c-40.021,0-72.578,32.557-72.578,72.578
	c0,26.019,13.769,48.872,34.396,61.686c-5.743,16.443-8.879,34.098-8.879,52.475c0,32.18,9.588,62.16,26.046,87.244
	c-11.67,1.583-22.125,6.594-30.013,14.511c-23.113,23.197-18.648,65.254,9.953,93.755c0.201,0.201,0.41,0.387,0.612,0.585
	l-2.126,7.317c-8.189-4.127-18.617-7.803-29.776-7.803c-15.566,0-29.025,7.137-38.926,20.637
	c-12.594,17.173-15.808,41.052-8.386,62.32c7.965,22.822,26.423,39.234,51.973,46.208c1.188,0.325,2.413,0.488,3.643,0.488h352.363
	c1.232,0,2.456-0.164,3.643-0.488c25.517-6.966,43.952-23.363,51.914-46.172C495.199,444.037,491.98,420.118,479.365,402.916z
	 M54.931,419.349c4.665-6.362,9.942-9.327,16.607-9.327c11.71,0,24.863,8.908,28.906,12.309c3.574,3.051,8.446,4.084,12.95,2.733
	c4.501-1.346,8.01-4.883,9.322-9.396l4.669-16.061c9.621,4.547,19.79,7.075,29.827,7.273c2.403,11.314,7.054,22.717,13.91,33.84
	c9.207,14.943,22.393,29.539,39.362,43.603H81.792c-15.602-4.722-26.728-14.665-31.433-28.141
	C45.964,443.589,47.76,429.13,54.931,419.349z M112.481,308.027c5.693-5.712,13.205-6.91,18.503-6.91
	c12.203,0,25.714,6.205,36.144,16.598c9.093,9.06,14.91,20.113,16.384,31.123c1.289,9.648-1.019,17.991-6.5,23.493
	c-5.693,5.713-13.205,6.912-18.503,6.912c-12.203,0-25.714-6.205-36.146-16.6C104.872,345.216,100.347,320.204,112.481,308.027z
	 M256.332,54.922c72.685,0,131.821,59.133,131.821,131.816c0,35.238-13.926,67.264-36.527,90.937
	c0.256-2.245,0.408-4.515,0.408-6.812c0-41.557-42.932-75.368-95.702-75.368c-52.769,0-95.699,33.811-95.699,75.368
	c0,2.297,0.152,4.566,0.408,6.812c-22.599-23.675-36.523-55.699-36.523-90.935C124.518,114.055,183.649,54.922,256.332,54.922z
	 M99.001,72.578c0-24.758,20.143-44.902,44.902-44.902c15.038,0,28.364,7.44,36.516,18.825
	c-26.442,14.369-48.381,36.008-63.142,62.206C106.202,100.522,99.001,87.377,99.001,72.578z M369.299,27.676
	c24.759,0,44.902,20.144,44.902,44.902c0,14.966-7.369,28.236-18.659,36.4c-14.689-26.193-36.551-47.844-62.912-62.267
	C340.769,35.207,354.168,27.676,369.299,27.676z M399.57,308.027c12.134,12.177,7.607,37.189-9.882,54.616
	c-10.432,10.396-23.945,16.602-36.144,16.6c-5.3,0-12.812-1.199-18.505-6.912c-5.482-5.502-7.789-13.845-6.5-23.493
	c1.474-11.01,7.291-22.063,16.384-31.123c10.43-10.394,23.943-16.598,36.144-16.598C386.365,301.117,393.877,302.315,399.57,308.027
	z M256.6,481.699c-1.872,0-3.743-0.538-5.364-1.616c-43.869-29.174-62.383-56.789-67.025-79.177
	c4.592-2.363,8.771-5.395,12.406-9.041c11.053-11.091,16.194-26.513,14.654-43.683c3.586-0.944,6.976-1.406,10.162-1.406
	c11.39,0,20.29,5.563,27.261,13.295c1.965,2.179,4.643,3.274,7.305,3.274c2.735,0,5.454-1.155,7.369-3.482
	c6.635-8.055,15.841-13.269,27.318-13.269c3.198,0,6.573,0.406,10.119,1.266c-1.603,17.245,3.534,32.65,14.63,43.786
	c3.921,3.933,8.483,7.102,13.506,9.496c-4.724,22.345-23.26,49.868-66.973,78.938C260.344,481.161,258.472,481.699,256.6,481.699z
	 M188.309,270.864c0-17.157,13.727-32.54,33.737-40.951c-1.034,2.726-1.595,5.623-1.595,8.626c0,16.13,16.067,29.208,35.882,29.208
	c19.821,0,35.885-13.079,35.885-29.208c0-3.003-0.56-5.898-1.595-8.624c20.008,8.41,33.737,23.792,33.737,40.95
	c0,25.853-31.152,47.694-68.027,47.694C219.46,318.557,188.309,296.716,188.309,270.864z M302.715,484.324
	c16.969-14.064,30.154-28.662,39.362-43.605c6.948-11.278,11.639-22.838,14.011-34.304c9.541-0.365,19.172-2.773,28.319-7.007
	l4.795,16.304c1.325,4.499,4.836,8.022,9.334,9.358c4.496,1.344,9.361,0.306,12.93-2.74c3.754-3.207,17.138-12.359,28.995-12.359
	c6.661,0,11.932,2.958,16.59,9.309c7.192,9.811,8.993,24.31,4.586,36.938c-4.698,13.461-15.805,23.389-31.374,28.105H302.715z"/>
<g>
	<path style="fill:#F0BF98;" d="M180.42,46.5c-8.152-11.385-21.478-18.825-36.516-18.825c-24.759,0-44.902,20.144-44.902,44.902
		c0,14.8,7.201,27.944,18.276,36.129C132.039,82.508,153.977,60.869,180.42,46.5z"/>
	<path style="fill:#F0BF98;" d="M395.543,108.978c11.29-8.164,18.659-21.435,18.659-36.4c0-24.758-20.144-44.902-44.902-44.902
		c-15.132,0-28.53,7.531-36.669,19.036C358.992,61.134,380.852,82.783,395.543,108.978z"/>
</g>
<path style="fill:#BE6419;" d="M160.633,270.864c0-41.557,42.93-75.368,95.699-75.368c52.771,0,95.702,33.811,95.702,75.368
	c0,2.297-0.152,4.568-0.408,6.812c22.601-23.675,36.527-55.699,36.527-90.937c0-72.685-59.136-131.816-131.821-131.816
	c-72.683,0-131.814,59.133-131.814,131.816c0,35.236,13.924,67.262,36.523,90.935C160.786,275.428,160.633,273.161,160.633,270.864z
	 M314.546,183.927c-7.642,0-13.838-6.196-13.838-13.838c0-7.642,6.196-13.838,13.838-13.838c7.642,0,13.838,6.196,13.838,13.838
	C328.384,177.731,322.188,183.927,314.546,183.927z M198.655,183.927c-7.642,0-13.838-6.196-13.838-13.838
	c0-7.642,6.196-13.838,13.838-13.838c7.642,0,13.838,6.196,13.838,13.838C212.492,177.731,206.296,183.927,198.655,183.927z"/>
<path style="fill:#F0BF98;" d="M324.359,270.864c0-17.157-13.729-32.54-33.737-40.95c1.034,2.726,1.595,5.622,1.595,8.624
	c0,16.13-16.064,29.208-35.885,29.208c-19.814,0-35.882-13.079-35.882-29.208c0-3.003,0.56-5.9,1.595-8.626
	c-20.008,8.412-33.737,23.794-33.737,40.951c0,25.853,31.151,47.694,68.023,47.694C293.207,318.557,324.359,296.716,324.359,270.864
	z"/>
<circle cx="198.66" cy="170.084" r="13.838"/>
<circle cx="314.552" cy="170.084" r="13.838"/>
<path style="fill:#D21E1E;" d="M328.938,401.145c-5.021-2.394-9.584-5.563-13.506-9.496c-11.096-11.138-16.233-26.543-14.63-43.786
	c-3.546-0.86-6.921-1.266-10.119-1.266c-11.477,0-20.682,5.213-27.318,13.269c-1.913,2.326-4.634,3.482-7.369,3.482
	c-2.662,0-5.34-1.095-7.305-3.274c-6.971-7.734-15.87-13.295-27.261-13.295c-3.186,0-6.576,0.464-10.162,1.406
	c1.541,17.169-3.601,32.592-14.654,43.683c-3.634,3.646-7.813,6.678-12.406,9.041c4.643,22.386,23.156,50.001,67.025,79.177
	c1.621,1.078,3.492,1.616,5.364,1.616c1.872,0,3.743-0.538,5.364-1.616C305.676,451.013,324.212,423.49,328.938,401.145z"/>
<g>
	<path style="fill:#BE6419;" d="M122.363,362.643c10.432,10.396,23.945,16.6,36.146,16.6c5.298,0,12.81-1.199,18.503-6.912
		c5.482-5.502,7.789-13.845,6.5-23.493c-1.474-11.01-7.291-22.063-16.384-31.123c-10.43-10.394-23.943-16.598-36.144-16.598
		c-5.298,0-12.81,1.199-18.503,6.91C100.347,320.204,104.872,345.216,122.363,362.643z"/>
	<path style="fill:#BE6419;" d="M344.92,317.715c-9.093,9.06-14.91,20.113-16.384,31.123c-1.289,9.648,1.019,17.991,6.5,23.493
		c5.693,5.713,13.205,6.912,18.505,6.912c12.202,0.002,25.712-6.205,36.144-16.6c17.489-17.427,22.016-42.439,9.882-54.616
		c-5.693-5.712-13.205-6.91-18.503-6.91C368.863,301.117,355.351,307.321,344.92,317.715z"/>
</g>
</svg>