<?xml version="1.0" encoding="iso-8859-1"?>
<!-- Uploaded to: SVG Repo, www.svgrepo.com, Generator: SVG Repo Mixer Tools -->
<svg height="800px" width="800px" version="1.1" id="Layer_1" xmlns="http://www.w3.org/2000/svg" xmlns:xlink="http://www.w3.org/1999/xlink" 
	 viewBox="0 0 512.002 512.002" xml:space="preserve">
<path style="fill:#FFB8A7;" d="M314.128,102.273c24.082-38.034,5.288-67.035-12.907-72.857c-4.574-1.463-8.872-1.884-12.873-1.884
	c-10.271,0-18.609,4.566-24.769,11.524c-2.09,2.36-4.986,3.591-7.895,3.591c-2.856,0-5.726-1.093-7.863-3.328
	c-6.397-6.689-14.449-11.379-24.608-11.379c-3.667,0-7.607,0.112-11.846,1.468c-18.206,5.821-37,34.83-12.919,72.864h115.68V102.273
	z"/>
<path style="fill:#FFFFFF;" d="M285.983,129.934c11.846,19.017,19.041,41.491,20.704,63.966h114.049
	c-2.178-24.203-11.989-46.678-27.775-63.966H285.983z"/>
<path d="M448.575,204.046c0-36.953-14.648-72.786-40.442-97.434c-2.574-2.458-5.852-4.339-9.412-4.339h-53.358
	c6.742-13.83,9.204-30.501,7.102-45.364c-3.611-25.536-20.415-46.418-42.814-53.583C302.474,1.034,295.311,0,288.348,0
	c-11.906,0-23.187,3.47-32.908,9.854c-9.764-6.334-20.692-9.591-32.228-9.591c-6.635,0-13.452,1.122-20.263,3.295
	c-22.414,7.169-39.223,27.803-42.836,53.342c-2.102,14.864,0.36,31.542,7.1,45.373h-53.356c-3.56,0-6.981,1.881-9.555,4.339
	c-25.794,24.649-40.874,60.228-40.874,97.181c0,66.687,47.067,122.036,107.575,129.398v151.15h-27.085
	c-7.638,0-13.83,6.193-13.83,13.83c0,7.638,6.193,13.83,13.83,13.83h81.254c7.638,0,13.83-6.193,13.83-13.83
	c0-7.638-6.193-13.83-13.83-13.83h-26.508v-151.15c22.474-2.562,40.608-10.93,57.052-23.565
	c16.441,12.636,36.303,20.998,57.049,23.565v151.15h-27.085c-7.638,0-13.83,6.193-13.83,13.83c0,7.638,6.193,13.83,13.83,13.83
	h81.254c7.638,0,13.83-6.193,13.83-13.83c0-7.638-6.193-13.83-13.83-13.83h-26.508v-151.15
	C400.933,325.83,448.575,270.738,448.575,204.046z M211.366,29.417c4.237-1.354,8.177-1.715,11.846-1.715
	c10.158,0,18.211,4.835,24.608,11.524c2.137,2.235,5.007,3.421,7.863,3.421c2.911,0,5.805-1.136,7.895-3.496
	c6.16-6.958,14.498-11.379,24.769-11.379c4,0,8.298,0.175,12.873,1.635c18.196,5.821,36.99,34.83,12.907,72.864h-115.68
	C174.366,64.239,193.16,35.238,211.366,29.417z M327.172,306.395c-18.216,0-35.721-5.665-50.749-16.187
	c15.634-18.825,26.226-42.714,29.542-68.646h113.861c-3.376,20.746-12.899,40.981-27.524,56.278
	C374.7,296.243,351.57,306.395,327.172,306.395z M185.409,306.395c-24.4,0-47.532-10.15-65.133-28.556
	c-14.626-15.296-24.148-35.532-27.524-56.278h185.309c-3.376,20.746-12.899,40.981-27.524,56.278
	C232.938,296.243,209.808,306.395,185.409,306.395z M306.687,193.9c-1.663-22.474-8.858-44.949-20.704-63.966H392.96
	c15.787,17.288,25.598,39.763,27.775,63.966H306.687z M251.197,129.934c15.787,17.288,25.598,39.763,27.775,63.966H91.841
	c2.178-24.203,11.989-46.678,27.775-63.966H251.197z"/>
<path style="fill:#D21E1E;" d="M419.823,221.56H305.963c-3.316,25.932-13.908,49.821-29.542,68.646
	c15.029,10.522,32.533,16.18,50.749,16.18c24.399,0,47.528-10.146,65.129-28.553C406.925,262.538,416.447,242.306,419.823,221.56z"
	/>
<path style="fill:#FFFFFF;" d="M278.974,193.9c-2.178-24.203-11.989-46.678-27.775-63.966H119.616
	c-15.787,17.288-25.598,39.763-27.775,63.966H278.974z"/>
<path style="fill:#D21E1E;" d="M250.537,277.838c14.626-15.296,24.148-35.532,27.524-56.278H92.752
	c3.376,20.746,12.899,40.981,27.524,56.278c17.601,18.405,40.732,28.546,65.133,28.546
	C209.808,306.384,232.938,296.243,250.537,277.838z"/>
</svg>